<?xml version="1.0" encoding="utf-8"?>
<!-- Generator: Adobe Illustrator 21.1.0, SVG Export Plug-In . SVG Version: 6.00 Build 0)  -->
<svg version="1.1" id="图层_1" xmlns="http://www.w3.org/2000/svg" xmlns:xlink="http://www.w3.org/1999/xlink" x="0px" y="0px"
	 viewBox="0 0 40.8 49.3" style="enable-background:new 0 0 40.8 49.3;" xml:space="preserve">
<style type="text/css">
	.st0{fill:#00A7AA;}
</style>
<title>资源 1</title>
<g id="图层_2">
	<g id="图层_1-2">
		<path class="st0" d="M11.3,0c0.1,0.7,0.3,1.3,0.6,1.9c0.6,1.2,1.2,2.4,2,3.6c1.4,2.1,2.7,4.3,4.1,6.4c1,1.5,1.9,3.1,2.6,4.7
			c0.8,1.5,1.3,3.1,1.5,4.8c0.7,4.2-1.1,8.4-4.6,10.7c-2,1.4-4.5,2-6.9,1.8c-1.6,0-3.1-0.4-4.5-1.2c-3.1-1.6-5.2-4.5-5.7-7.9
			c-0.3-2-0.1-4.1,0.7-6.1c0.7-1.9,1.6-3.8,2.7-5.5C5.3,11,6.7,8.7,8.2,6.4c1-1.5,1.9-3.2,2.6-4.9C11,1,11.1,0.6,11.3,0.1L11.3,0z
			 M9.9,31.1h0.4c0.5,0,0.9-0.5,0.9-1c0-0.1,0-0.1,0-0.2c-0.1-0.4-0.5-0.7-1-0.7c-3-0.1-5.4-2.5-5.4-5.6c0-0.5-0.4-0.9-0.9-0.9
			c0,0,0,0-0.1,0c-0.5,0-0.9,0.4-0.9,1l0,0c0,0.3,0,0.6,0,0.9C3.3,28.2,6.3,30.9,9.9,31.1z"/>
	</g>
</g>
</svg>
